<svg width="24" height="24" viewBox="0 0 24 24" fill="none" xmlns="http://www.w3.org/2000/svg">
<g opacity="0.5">
<rect width="24" height="24" fill="white" fill-opacity="0.01"/>
<g clip-path="url(#clip0_3540_4716)">
<rect width="16" height="16" transform="translate(4 4)" fill="white" fill-opacity="0.01"/>
<g clip-path="url(#clip1_3540_4716)">
<path d="M4.29279 4.2921C4.48031 4.10463 4.73462 3.99932 4.99979 3.99932C5.26495 3.99932 5.51926 4.10463 5.70679 4.2921L11.9998 10.5851L18.2928 4.2921C18.385 4.19659 18.4954 4.12041 18.6174 4.068C18.7394 4.01559 18.8706 3.98801 19.0034 3.98685C19.1362 3.9857 19.2678 4.011 19.3907 4.06128C19.5136 4.11156 19.6253 4.18582 19.7192 4.27971C19.8131 4.3736 19.8873 4.48525 19.9376 4.60815C19.9879 4.73105 20.0132 4.86273 20.012 4.99551C20.0109 5.12829 19.9833 5.25951 19.9309 5.38151C19.8785 5.50351 19.8023 5.61386 19.7068 5.7061L13.4138 11.9991L19.7068 18.2921C19.8889 18.4807 19.9897 18.7333 19.9875 18.9955C19.9852 19.2577 19.88 19.5085 19.6946 19.6939C19.5092 19.8793 19.2584 19.9845 18.9962 19.9868C18.734 19.9891 18.4814 19.8883 18.2928 19.7061L11.9998 13.4131L5.70679 19.7061C5.51818 19.8883 5.26558 19.9891 5.00339 19.9868C4.74119 19.9845 4.49038 19.8793 4.30497 19.6939C4.11956 19.5085 4.01439 19.2577 4.01211 18.9955C4.00983 18.7333 4.11063 18.4807 4.29279 18.2921L10.5858 11.9991L4.29279 5.7061C4.10532 5.51858 4 5.26427 4 4.9991C4 4.73394 4.10532 4.47963 4.29279 4.2921Z" fill="white"/>
</g>
</g>
</g>
<defs>
<clipPath id="clip0_3540_4716">
<rect width="16" height="16" fill="white" transform="translate(4 4)"/>
</clipPath>
<clipPath id="clip1_3540_4716">
<rect width="16" height="16" fill="white" transform="translate(4 4)"/>
</clipPath>
</defs>
</svg>
